# xmcd
#
# Track frame offsets:
#	150
#	13266
#	26474
#	39423
#	50735
#	62728
#	75673
#	88421
#	101791
#	114408
#	126255
#	137582
#	150164
#	162083
#	174170
#	186637
#	199387
#	211182
#	223999
#	238640
#	250473
#	260037
#	270690
#	284546
#	296001
#	306763
#	318823
#
# Disc length: 4380 seconds
#
# Revision: 3
# Processed by: cddbd v1.5.2PL0 Copyright (c) Steve Scherf et al.
# Submitted via: audiograbber 1.83.01
#
DISCID=98111a1b
DTITLE=Boogie Woogie Classics - Boogie Woogie Classics - Boogiology
DYEAR=1945
DGENRE=Jazz Piano
TTITLE0=Sonny Thompson - Sonny's Boogie
TTITLE1=Count Basie - The Mad Boogie
TTITLE2=Ella Mae Morse (Freddie Slack) - The House Of Blue Lights
TTITLE3=Harris, Wynonie (Herman "Sonny" Blount) - Dig This Boogie
TTITLE4=Joe Liggins - Dripper's Boogie, Pt. 2
TTITLE5=Albert Ammons - Suitcase Blues
TTITLE6=Albert Ammons - Doin' The Boogie Woogie
TTITLE7=Erskine (Ace Harris) Hawkins - Hawk's Boogie
TTITLE8=Jack McVea - Groovin' Boogie
TTITLE9=Sonny Thompson - Screamin' Boogie
TTITLE10=Camille Howard - Camille's Boogie Woogie
TTITLE11=Memphis Slim - Pacemaker Boogie
TTITLE12=Cecil Gant - Screwy Boogie
TTITLE13=Amos Milburn - Pot Luck Boogie
TTITLE14=Julia Lee - That's What I Like
TTITLE15=Amos Milburn - Chicken Shack Boogie
TTITLE16=Milt Buckner - Fatstuff Boogie
TTITLE17=Lloyd Glenn - Rockin' Boogie (Boogiology)
TTITLE18=Johnny (Levonia Williams) Otis  - Alimony Boogie
TTITLE19=Sir Charles Thompson - Sir Charles' Boogie
TTITLE20=Camille Howard - X-Temperaneous Boogie
TTITLE21=Albert Ammons - Bear Den Boogie
TTITLE22=Albert Ammons - Rhythm Boogie
TTITLE23=Frantic Faye Thomas - Faye's Boogie
TTITLE24=Art Tatum - Tatum Pole Boogie
TTITLE25=Professor Longhair - Boogie Woogie
TTITLE26=Lloyd Glenn - Old Time Shuffle
EXTD=
EXTT0=
EXTT1=
EXTT2=
EXTT3=
EXTT4=
EXTT5=
EXTT6=
EXTT7=
EXTT8=
EXTT9=
EXTT10=
EXTT11=
EXTT12=
EXTT13=
EXTT14=
EXTT15=
EXTT16=
EXTT17=
EXTT18=
EXTT19=
EXTT20=
EXTT21=
EXTT22=
EXTT23=
EXTT24=
EXTT25=
EXTT26=
PLAYORDER=
